<svg xmlns="http://www.w3.org/2000/svg" viewBox="0 0 1337.3 456.9"><defs><style>.cls-1{fill:#148c92;}.cls-2{fill:#d48018;}</style></defs><title>Asset 4</title><g id="Layer_2" data-name="Layer 2"><g id="Layer_1-2" data-name="Layer 1"><path class="cls-1" d="M143.75,233.7c0-1.78-2.44-3.23-5.45-3.23s-5.45,1.45-5.45,3.23c0,1.09.91,2.05,2.3,2.64a2.06,2.06,0,0,0,0,.26,43.19,43.19,0,0,1-.48,6.43,37.49,37.49,0,0,1-4.28,13.23c-6.78,11.49-20.86,13.58-21,13.6a32.59,32.59,0,0,1-5,.35c1.2-3.36,1.23-7.17,1.17-12.88-.09-7.51-.3-15.1-.6-22.62,8-1,13.86-7.39,17.18-11a31.07,31.07,0,0,0,6.17-35.29,33,33,0,0,0-9.44-12c-.43-2-1.71-3.42-3.24-3.42-1.88,0-3.4,2.17-3.4,4.85s1.52,4.85,3.4,4.85a2.72,2.72,0,0,0,1.89-.82,27.56,27.56,0,0,1,6.24,8.66,27.07,27.07,0,0,1,1.88,17,27.72,27.72,0,0,1-7.19,12.87c-3.35,3.66-8.94,9.79-16,9.52-9.32-.34-16-12-17.94-19.27a29.7,29.7,0,0,1,8.53-29.24,3,3,0,0,0,2.32,1.31c1.88,0,3.4-2.17,3.4-4.85s-1.52-4.85-3.4-4.85c-1.34,0-2.48,1.1-3,2.7a2.48,2.48,0,0,0-.91.47,35.18,35.18,0,0,0-10.08,13.38,34.47,34.47,0,0,0-1.64,22.4c2.3,8.39,9.47,20.74,20.24,22.69.31,7.58.52,15.24.61,22.81.07,6.13,0,9.41-1.35,12.22a22.7,22.7,0,0,1-4.32-1.42,37.37,37.37,0,0,1-9.64-6.64c-.83-.83-1.51-1.6-2.17-2.34-1.76-2-3.42-3.87-6.55-5a12.69,12.69,0,0,0-8.05-.57c-6,1.77-10.4,9.37-9.25,15.94C61,279.39,74.15,282.31,78.15,283a27.43,27.43,0,0,0,4.45.36,26.42,26.42,0,0,0,7-.93,23.33,23.33,0,0,0,12-7.35,34.44,34.44,0,0,0,8.45-.24c.68-.1,16.62-2.47,24.62-16a42,42,0,0,0,4.91-15,48.62,48.62,0,0,0,.54-7C142.23,236.3,143.75,235.11,143.75,233.7ZM88.26,277.59A21.54,21.54,0,0,1,79,278c-2.26-.37-13.6-2.58-14.79-9.36-.72-4.12,2.12-9.21,5.73-10.28a5.6,5.6,0,0,1,1.64-.23,9.27,9.27,0,0,1,3.24.68c2,.74,2.94,1.84,4.56,3.67.68.77,1.45,1.64,2.39,2.57a41.9,41.9,0,0,0,11.12,7.66,26.68,26.68,0,0,0,2.9,1.1A20.22,20.22,0,0,1,88.26,277.59Z"/><path class="cls-1" d="M352.26,54.64c-6.91,4.09-13.68,7.79-20.28,11.55-3.29,1.91-6.56,3.72-9.77,5.64-1.6,1-3.21,1.83-4.8,2.79s-3.15,1.91-4.72,2.86C300.14,85,288.27,92.84,277.1,101a332.5,332.5,0,0,0-31.28,26.06c-1.21,1.15-2.49,2.22-3.64,3.43l-3.5,3.55c-1.16,1.19-2.34,2.35-3.53,3.5s-2.22,2.46-3.34,3.67-2.24,2.44-3.36,3.65l-1.7,1.81-1.82,2.07-3.61,4.06c-1.19,1.34-2.37,2.66-3.48,4-2.32,2.61-4.51,5.16-6.63,7.73-1,1.26-2.13,2.52-3.14,3.79l-3,3.79a153.05,153.05,0,0,0-10.29,15.1c-.7,1.27-1.52,2.53-2.15,3.81s-1.31,2.56-2,3.84c-1.1,2.59-2.41,5.16-3.27,7.82-.24.66-.48,1.32-.75,2s-.41,1.34-.62,2c-.38,1.35-.85,2.7-1.19,4.08l-.94,4.19c-.07.35-.17.7-.23,1.06l-.15,1.07-.32,2.17-.33,2.18c-.14.74-.12,1.47-.2,2.22-.09,1.48-.27,3-.32,4.49l-.06,4.58c0,.78,0,1.54.08,2.31l.12,2.34a109.73,109.73,0,0,0,3.08,19.35,144.69,144.69,0,0,0,6.76,20.16c2.8,6.83,6.14,13.66,9.79,20.81A87.83,87.83,0,0,1,181,286a97.75,97.75,0,0,1-31.51-39.56l-1.3-3.09a32.56,32.56,0,0,1-1.2-3.16l-2.06-6.47c-.59-2.2-1-4.43-1.54-6.67-.23-1.12-.54-2.24-.67-3.38l-.44-3.43-.42-3.45-.2-1.74c0-.58,0-1.16-.07-1.74l-.17-7c0-1.18.1-2.34.16-3.51l.24-3.52c.11-1.17.14-2.37.32-3.52s.35-2.32.53-3.48a107,107,0,0,1,7.8-26.71,143.05,143.05,0,0,1,12.87-23.33l3.73-5.23c1.25-1.71,2.54-3.35,3.82-5s2.61-3.19,3.92-4.8,2.62-3.11,3.95-4.63,2.67-3,4-4.42l2-2.17,2-2.09,2-2.07,2.22-2.21c1.5-1.47,3-3,4.49-4.4s3-2.92,4.55-4.32,3.17-2.72,4.79-4l4.81-4c.41-.32.8-.67,1.21-1l1.27-.92,2.54-1.83a189.9,189.9,0,0,1,43.22-23.92,187.44,187.44,0,0,1,46.91-11.8C320.57,51.53,336.55,51.54,352.26,54.64Z"/><path class="cls-1" d="M42.64,67.64a143.56,143.56,0,0,1,26.51-1.89l3.33,0,3.33.18c2.22.12,4.45.24,6.67.44,4.42.48,8.9.9,13.3,1.69A198.6,198.6,0,0,1,147.72,84a199.7,199.7,0,0,1,46.6,30.3c3.49,3.12,6.86,6.38,10.27,9.61l1.26,1.21,1.13,1.13,2.24,2.31,4.55,4.73c3,3.22,6,6.6,9.06,10.07s5.9,7.15,8.76,10.91,5.56,7.72,8.17,11.82,5.05,8.36,7.32,12.79,4.33,9,6.14,13.77a137,137,0,0,1,4.63,14.65,123.58,123.58,0,0,1,2.78,15.3,115.92,115.92,0,0,1,.7,15.57,113,113,0,0,1-4.91,30.23A115.9,115.9,0,0,1,251,282.5a112.41,112.41,0,0,1-7.1,13,110.08,110.08,0,0,1-8.51,11.7,113.2,113.2,0,0,1-9.68,10.34,121,121,0,0,1-22,16.54,102.25,102.25,0,0,1-24.62,10.64c5.32-7.14,10.22-14.08,14.58-21.15a183.74,183.74,0,0,0,11.47-21.24c1.64-3.54,3.08-7.11,4.36-10.65.66-1.77,1.24-3.55,1.82-5.3.27-.89.51-1.78.78-2.66s.52-1.75.74-2.64a108,108,0,0,0,3.41-20.82,98.3,98.3,0,0,0,.06-10.15,86.19,86.19,0,0,0-.94-9.86c-.46-3.23-1.2-6.39-2-9.53s-1.84-6.23-3-9.29C206,209.13,198.8,197.3,190,185.47c-2.19-3-4.51-5.92-6.92-8.89s-4.92-6-7.49-9l-3.92-4.63-2-2.35-1-1.2-.93-1.06q-3.74-4.15-7.43-8.42A294.78,294.78,0,0,0,126.68,119a382.71,382.71,0,0,0-39.4-26.91C83.8,89.89,80.19,88,76.61,85.83l-5.47-3-2.76-1.54-2.79-1.48C58.16,75.68,50.49,71.83,42.64,67.64Z"/><circle class="cls-1" cx="194.98" cy="34.72" r="34.72"/><path class="cls-1" d="M285.33,170.45a3.34,3.34,0,0,1,1.29,2.75c.09,7.84.21,15.68.32,23.52,0,.35-.09.82.09,1,2.06,2.46,1.13,5.51,1.67,8.26.18,1,.24,1.63,1.45,1.71,1.41.1,1.38,1.34,1.29,2.3-.16,1.7.28,2.8,2.08,3.27,1.63.43,1.55,1.87,1.55,3.19q0,14.42,0,28.83c0,3.24,0,6.49,0,9.73,0,1.53.55,2.51,2.14,2.7a1.18,1.18,0,0,1,1.17,1.43c-.05.94-.68,1.17-1.45,1.17-1.54,0-3.07,0-4.6-.11-.73,0-1,.11-1,.95q0,9.29,0,18.57a1.23,1.23,0,0,0,1,1.38,8.81,8.81,0,0,1,3.28,1.86l-17.7-.07a4.12,4.12,0,0,1,2.11-1.49c1.51-.44,1.72-1.35,1.7-2.73-.07-5.72-.06-11.44,0-17.16,0-1-.25-1.35-1.27-1.29-1.47.1-2.95.06-4.42.09-.82,0-1.37-.28-1.45-1.18a1.2,1.2,0,0,1,1.13-1.48c1.82-.23,2.18-1.4,2.18-3,0-12.55,0-25.11,0-37.67,0-2.13.4-3.72,2.74-4.2.92-.19,1-.85.91-1.63-.08-1.63-.48-3.45,2.07-3.66.61,0,.48-.71.53-1.15.18-1.7.32-3.41.52-5.11.14-1.13,0-2.33,1.05-3.23.51-.42.26-1.23.25-1.87q-.14-11.85-.31-23.7C285.47,171.87,285.39,171.3,285.33,170.45Zm7.21,44.06a6.47,6.47,0,0,0-.85-.34,19.75,19.75,0,0,0-11,.08c-1,.29-1.21,1-1.21,1.87q0,20.16,0,40.32c0,.79.12,1.16,1,1.15,3.89,0,7.78,0,11.67.06.62,0,1.4.18,1.15-.91-.17-.74.41-1.91-1.16-1.83s-2.95,0-4.42,0c-.47,0-.94.07-1-.67s.5-.65.95-.65c1.47,0,2.94,0,4.42-.07.42,0,.9.17,1.07-.57.37-1.69-.09-2.34-1.81-2.32l-1.95,0c-.4,0-.83.07-.86-.56s.28-.82.85-.81c.94,0,1.88,0,2.82,0,1.23.07.91-.79.91-1.44s.25-1.45-1-1.38c-1.53.1-3.06.05-4.6.05-.4,0-.83,0-.86-.59s.3-.77.86-.77c1.47,0,2.95-.11,4.42,0,1.22.08,1.12-.62,1.14-1.43s0-1.5-1.18-1.38c-.88.09-1.77,0-2.65,0-.41,0-.68-.11-.68-.59s.1-.79.68-.78a23.43,23.43,0,0,1,2.65,0c1.38.16,1.14-.74,1.17-1.54s.06-1.49-1.14-1.38a35.85,35.85,0,0,1-3.88,0c-.52,0-1.28.32-1.25-.72,0-.88.68-.62,1.16-.63,1.18,0,2.36,0,3.53,0,.94,0,1.66.09,1.63-1.33s-.51-1.59-1.65-1.46a14,14,0,0,1-1.94,0c-.47,0-1,.08-1-.64s.43-.72.92-.72a22.61,22.61,0,0,1,2.47,0c1,.09,1.19-.36,1.18-1.23,0-4.95,0-9.9,0-14.85A2.4,2.4,0,0,0,292.54,214.51Zm-2.74-2.62a6,6,0,0,0,0-2.69c-.15-.5-.9-.31-1,0a4,4,0,0,0,0,2.71C288.83,212.15,289.37,212,289.8,211.89Zm-5.54,0a6.63,6.63,0,0,0-.35-2.82c-.13-.27-.83-.23-.89.08a5,5,0,0,0,.22,2.72C283.36,212.14,283.85,212.13,284.26,211.87Z"/><path class="cls-1" d="M292.13,231.25c-.36,0-.69.08-1,.08-3,0-6,0-9,0-.75,0-1-.18-1-1,.06-4.65.07-9.3.08-14a1.49,1.49,0,0,1,1.23-1.67,19.63,19.63,0,0,1,8.76,0,1.24,1.24,0,0,1,1.07,1.37c0,4.77,0,9.54,0,14.3C292.21,230.69,292.17,230.92,292.13,231.25Z"/><path class="cls-2" d="M85.7,143a167.89,167.89,0,0,0-21.45,31.33,158.87,158.87,0,0,0-7.38,16.79c-.92,2.9-2,5.68-2.78,8.59-.39,1.45-.86,2.86-1.19,4.31l-1,4.35a123.11,123.11,0,0,0-2.61,34.72c.26,2.86.39,5.7.87,8.53l.59,4.22.84,4.19c.46,2.8,1.28,5.54,1.94,8.29.34,1.37.83,2.72,1.22,4.07s.78,2.72,1.29,4.05a136,136,0,0,0,14.72,30.21,133.12,133.12,0,0,0,9.91,13.1l2.75,3c.89,1,1.91,1.94,2.85,2.92l1.42,1.45,1.5,1.39c1,.9,2,1.88,3,2.74a130.42,130.42,0,0,0,27.26,18.14,141.47,141.47,0,0,0,15.3,6.62,157.05,157.05,0,0,0,16.06,5,143.34,143.34,0,0,0,16.31,3.24c1.33.19,2.63.34,3.84.47s2.61.22,3.93.29,2.69.12,4,.16l4.12,0a150.49,150.49,0,0,0,33.08-4,136,136,0,0,0,59.09-30.38,133.24,133.24,0,0,0,12.19-12.05,142.38,142.38,0,0,0,19.93-28.42c.68-1.27,1.31-2.53,1.92-3.84l1.77-4c1.28-2.67,2.19-5.47,3.28-8.25.58-1.38,1-2.82,1.43-4.23s.94-2.85,1.34-4.3c.73-2.9,1.57-5.81,2.16-8.78a142.88,142.88,0,0,0,2.78-18.17,154.27,154.27,0,0,0,.59-18.79,182.81,182.81,0,0,0-1.53-19.22,113.17,113.17,0,0,1,7.93,18c.51,1.57,1,3.15,1.51,4.74l1.36,4.81q.6,2.43,1.15,4.89c.37,1.63.64,3.29,1,4.94a128.42,128.42,0,0,1,2,20.24l.08,2.57c0,.86,0,1.72-.06,2.57l-.17,5.16c-.08,1.72-.28,3.44-.42,5.16s-.26,3.47-.55,5.17c-.52,3.43-1,6.9-1.79,10.29L332,294.44c-.44,1.72-.93,3.47-1.45,5.17a140,140,0,0,1-7.74,19.69,147,147,0,0,1-10.46,18.42,150.43,150.43,0,0,1-13,16.94c-2.33,2.73-4.87,5.25-7.4,7.82-1.25,1.29-2.62,2.45-3.94,3.68s-2.63,2.48-4,3.6c-2.8,2.27-5.64,4.51-8.49,6.76-3,2.05-6,4.11-9,6.13a158.12,158.12,0,0,1-39.56,18,172.84,172.84,0,0,1-42.83,7.11c-1.83.08-3.67.07-5.5.1s-3.7,0-5.57-.1-3.74-.17-5.66-.31-3.87-.35-5.72-.58a181.75,181.75,0,0,1-21.42-4.1,192.61,192.61,0,0,1-20.6-6.58,172.65,172.65,0,0,1-19.77-9.09,156.12,156.12,0,0,1-35.44-26,148.91,148.91,0,0,1-14.57-16.67,148.95,148.95,0,0,1-26.38-59.26,141.54,141.54,0,0,1-2.32-42.75A128.65,128.65,0,0,1,32,201.68L34.23,197c.74-1.56,1.63-3.06,2.44-4.58,1.58-3.07,3.47-6,5.29-8.86a138.32,138.32,0,0,1,12.57-16.05A120.19,120.19,0,0,1,85.7,143Z"/><path class="cls-1" d="M12.68,223.15A181.49,181.49,0,0,0,11.11,267a160.88,160.88,0,0,0,3.35,21.13c.35,1.73.86,3.44,1.31,5.14s.88,3.41,1.37,5.1l1.64,5c.28.83.52,1.67.83,2.49l1,2.44a141.44,141.44,0,0,0,8.65,18.93,152.69,152.69,0,0,0,11,17.49,186.28,186.28,0,0,0,13.08,15.95c2.33,2.55,4.74,5,7.27,7.51s5,4.88,7.53,7.19c20.35,18.35,44.41,32.2,69.92,39.29a152.81,152.81,0,0,0,39.1,5.62,150.86,150.86,0,0,0,39.17-4.34,168.28,168.28,0,0,0,37.29-13.85c1.49-.76,3-1.51,4.46-2.33s2.95-1.61,4.4-2.47c2.92-1.66,5.79-3.48,8.81-5.37s5.84-3.74,8.63-5.68c1.38-1,2.77-1.94,4.12-2.95s2.72-2,4-3a181.7,181.7,0,0,0,15.18-13.14,172.35,172.35,0,0,0,13.31-14.79l3-4,1.48-2,1.36-2c.9-1.38,1.85-2.74,2.73-4.13l2.5-4.25c.42-.71.86-1.41,1.26-2.13l1.12-2.19,2.27-4.4,2-4.53,1-2.26c.31-.77.56-1.55.85-2.32,9.69-24.66,10.65-52.89,5.51-80.73a242.76,242.76,0,0,0-11.66-41.49c-2.56-6.82-5.36-13.6-8.45-20.29s-6.39-13.31-10-19.83c2.68,2.61,5.23,5.37,7.69,8.2s4.83,5.76,7.15,8.72a226.67,226.67,0,0,1,24,38.63,214.45,214.45,0,0,1,8.9,21.34,183.08,183.08,0,0,1,6.34,22.56c.39,1.93.8,3.86,1.15,5.8l.88,5.88c.33,2,.48,3.95.69,5.93s.45,4,.51,6l.29,6c.07,2,0,4,0,6l-.05,3c0,1-.13,2-.19,3l-.44,6.07-.78,6.06c-.14,1-.24,2-.41,3l-.57,3c-.4,2-.74,4-1.21,6L363.75,327A150.85,150.85,0,0,1,343,371.52a183.74,183.74,0,0,1-15.24,19.18,190.81,190.81,0,0,1-17.57,16.81c-1.53,1.33-3.1,2.6-4.68,3.85s-3.18,2.47-4.78,3.68c-3.2,2.4-6.53,4.74-9.68,6.88s-6.52,4.37-10,6.47c-1.71,1.06-3.45,2.08-5.21,3.09s-3.52,2-5.31,2.95a204.62,204.62,0,0,1-22.16,10.17c-1.89.76-3.84,1.38-5.76,2.07s-3.85,1.36-5.82,1.92l-5.88,1.77c-2,.53-4,1-6,1.5-4,1.06-8,1.69-12,2.49-1,.21-2,.35-3.05.48l-3,.42c-2,.26-4.07.59-6.11.77l-6.15.46c-2,.15-4.1.32-6.16.31l-6.16.08c-1,0-2.06.06-3.08,0l-3.08-.15a174.79,174.79,0,0,1-48.28-8.59A182.91,182.91,0,0,1,84.05,427c-3.36-2.23-6.66-4.54-9.85-7s-6.36-4.9-9.38-7.53a204.91,204.91,0,0,1-17.21-16.64c-2.7-2.92-5.34-6-7.73-8.94s-4.9-6.1-7.24-9.29a171.43,171.43,0,0,1-12.89-20A157.79,157.79,0,0,1,3.17,313.24C-3.32,282.44.31,250.34,12.68,223.15Z"/><path class="cls-1" d="M497.49,76.9V186.09H475.16V76.9H437.89V57.39h96.87V76.9Z"/><path class="cls-1" d="M622.49,157.43H562.71l-11.6,28.66H527l53.62-128.7h23.92l53.62,128.7H633.92Zm-7.56-18.81L592.6,83.23l-22.33,55.39Z"/><path class="cls-1" d="M827.3,57.39l-37.62,128.7H767.53l-26.2-93.54-26.2,93.54H693l-37.8-128.7h23.56l25.85,90.72,25.49-90.72h22.5l25.32,90.54,25.85-90.54Z"/><path class="cls-1" d="M920,157.43H860.17l-11.6,28.66H824.48L878.1,57.39H902l53.62,128.7H931.38Zm-7.56-18.81L890.06,83.23l-22.33,55.39Z"/><path class="cls-1" d="M1057.42,186.09l-33.22-49.23-33.06,49.23H972.33V57.39h22.15l-.17,79.82v10.72l1.75-3.69,56.62-86.85h24.61L1037,119.28l46.77,66.81Z"/><path class="cls-1" d="M1182.24,157.43h-59.78l-11.6,28.66h-24.08l53.62-128.7h23.91l53.62,128.7h-24.26Zm-7.56-18.81-22.33-55.39L1130,138.62Z"/><path class="cls-1" d="M1320.42,186.09h-85.8V57.39h22.16V166.57h63.64Z"/><path class="cls-1" d="M557.44,268.35v128.7H535.11V342.37H471.65v54.68H449.49V268.35h22.16v54.33h63.46V268.35Z"/><path class="cls-1" d="M580.47,332.7c0-38.15,26.72-66.46,67.33-66.46s67.51,28.31,67.51,66.46c0,38.33-26.89,66.64-67.51,66.64S580.47,371,580.47,332.7Zm22.5,0c0,26.37,19.16,46.07,44.83,46.07,25.85,0,44.84-19.7,44.84-46.07,0-26.19-19-45.88-44.84-45.88C622.13,286.82,603,306.51,603,332.7Z"/><path class="cls-1" d="M784.58,378.77c16,0,26.54-4.75,26.54-17.06,0-27.6-80.34-8.44-80.34-57.84,0-26,24.08-37.8,48.7-37.8,19.34,0,36.21,6.5,47.64,16l-11.43,16.17c-10-7.21-22.85-11.42-37.44-11.42-12.66,0-25.15,4.39-25.15,16.7,0,26.37,80.35,7,80.35,58.19,0,25-20,37.8-48.7,37.8-22,0-42.37-7.56-55.38-18.46l12.13-16.17A72.87,72.87,0,0,0,784.58,378.77Z"/><path class="cls-1" d="M952.12,312c0,25.84-18.46,43.25-50.81,43.25H877.4v41.84H854.89V268.35h46.42C933.13,268.35,952.12,286.29,952.12,312Zm-22.68,0c0-13.89-9-24.09-28.48-24.09H877.4v47.64H901C920.47,335.51,929.44,325.67,929.44,312Z"/><path class="cls-1" d="M973.38,397.05V268.35h22.16v128.7Z"/><path class="cls-1" d="M1074.12,287.87V397.05h-22.33V287.87h-37.27V268.35h96.87v19.52Z"/><path class="cls-1" d="M1199.12,368.39h-59.78l-11.6,28.66h-24.09l53.63-128.7h23.91l53.62,128.7h-24.26Zm-7.56-18.81-22.33-55.38-22.33,55.38Z"/><path class="cls-1" d="M1337.3,397.05h-85.8V268.35h22.15V377.53h63.65Z"/></g></g></svg>